# xmcd
#
# Track frame offsets: 
#        150
#        23246
#        41752
#        63341
#        79936
#        101099
#        116542
#        145515
#        178316
#
# Disc length: 2937 seconds
#
# Revision: 1
# Processed by: cddbd v1.5.2PL0 Copyright (c) Steve Scherf et al.
# Submitted via: ExactAudioCopy v0.99pb5
#
DISCID=780b7709
DTITLE=Orquesta  Salsamanía - Contagioso
DYEAR=2003
DGENRE=Salsa
TTITLE0=mi inspiración
TTITLE1=amiga
TTITLE2=el pregonero
TTITLE3=chachaìto
TTITLE4=hace tiempo
TTITLE5=hello mr. bean
TTITLE6=al pasar el tiempo
TTITLE7=show down
TTITLE8=video track
EXTD=YEAR: 2003
EXTT0=
EXTT1=
EXTT2=
EXTT3=
EXTT4=
EXTT5=
EXTT6=
EXTT7=
EXTT8=
PLAYORDER=
